PathFileType	4	(X/Y/Z) flx_2kg_2.trc																										
DataRate	CameraRate	NumFrames	NumMarkers	Units	OrigDataRate	OrigDataStartFrame	OrigNumFrames																					
100	100	24	9	mm	100	103	821																					
Frame#	Time	gu			centelbow			EpL			centpxt8			centijc7			ij			ts			aa			ai		
		X1	Y1	Z1	X2	Y2	Z2	X3	Y3	Z3	X4	Y4	Z4	X5	Y5	Z5	X6	Y6	Z6	X7	Y7	Z7	X8	Y8	Z8	X9	Y9	Z9  
102	1.02	-77.985	-22.361	165.978	-120.832	-264.238	191.351	-104.496	-260.17	218.847	-46.816	-153.158	-8.669	-46.816	31.938	-8.669	0	0	0	-135.238	29.057	54.05	-105.186	17.516	168.891	-157.04	-82.344	53.972
103	1.03	-77.806	-23.033	166.187	-119.379	-265.063	192.223	-103.021	-260.844	219.683	-46.816	-153.158	-8.669	-46.816	31.938	-8.669	0	0	0	-135.236	28.973	54.07	-105.041	17.479	168.878	-157.006	-82.435	54.056
104	1.04	-77.424	-23.31	165.899	-117.578	-265.501	192.65	-101.187	-261.119	220.065	-46.816	-153.158	-8.669	-46.816	31.938	-8.669	0	0	0	-135.331	28.983	54.039	-104.985	17.534	168.812	-157.053	-82.434	54.084
105	1.05	-76.967	-23.223	165.434	-115.53	-265.595	192.877	-99.107	-261.04	220.245	-46.816	-153.158	-8.669	-46.816	31.938	-8.669	0	0	0	-135.331	28.968	53.968	-104.832	17.555	168.704	-157.012	-82.457	54.065
106	1.06	-76.733	-23.107	165.208	-113.659	-265.66	193.291	-97.222	-260.933	220.62	-46.816	-153.158	-8.669	-46.816	31.938	-8.669	0	0	0	-135.2	28.828	53.903	-104.558	17.438	168.603	-156.864	-82.601	54.045
107	1.07	-76.744	-23.236	165.221	-112.123	-265.947	193.928	-95.69	-261.05	221.23	-46.816	-153.158	-8.669	-46.816	31.938	-8.669	0	0	0	-135.058	28.583	53.938	-104.311	17.198	168.611	-156.73	-82.844	54.107
108	1.08	-76.738	-23.729	165.355	-110.693	-266.569	194.689	-94.279	-261.507	221.972	-46.816	-153.158	-8.669	-46.816	31.938	-8.669	0	0	0	-135.059	28.294	54.139	-104.258	16.889	168.795	-156.738	-83.131	54.301
109	1.09	-76.641	-24.196	165.482	-109.092	-267.168	195.416	-92.714	-261.937	222.688	-46.816	-153.158	-8.669	-46.816	31.938	-8.669	0	0	0	-135.239	28.074	54.378	-104.405	16.643	169.022	-156.9	-83.355	54.516
110	1.1	-76.652	-24.158	165.467	-107.324	-267.293	195.947	-90.999	-261.878	223.216	-46.816	-153.158	-8.669	-46.816	31.938	-8.669	0	0	0	-135.519	28.003	54.472	-104.63	16.57	169.102	-157.132	-83.435	54.604
111	1.11	-76.807	-23.864	165.357	-105.521	-267.171	196.361	-89.263	-261.562	223.631	-46.816	-153.158	-8.669	-46.816	31.938	-8.669	0	0	0	-135.778	27.945	54.443	-104.8	16.542	169.052	-157.332	-83.505	54.605
112	1.12	-76.873	-23.814	165.266	-103.603	-267.276	196.83	-87.421	-261.466	224.103	-46.816	-153.158	-8.669	-46.816	31.938	-8.669	0	0	0	-135.898	27.759	54.375	-104.793	16.403	168.954	-157.385	-83.703	54.586
113	1.13	-76.736	-24.032	165.217	-101.437	-267.629	197.377	-85.334	-261.613	224.652	-46.816	-153.158	-8.669	-46.816	31.938	-8.669	0	0	0	-135.832	27.562	54.301	-104.556	16.248	168.837	-157.223	-83.919	54.557
114	1.14	-76.48	-24.323	165.236	-99.086	-268.045	197.99	-83.063	-261.82	225.265	-46.816	-153.158	-8.669	-46.816	31.938	-8.669	0	0	0	-135.686	27.51	54.344	-104.202	16.232	168.826	-156.95	-83.995	54.636
115	1.15	-76.175	-24.609	165.354	-96.687	-268.437	198.694	-80.744	-262.004	225.968	-46.816	-153.158	-8.669	-46.816	31.938	-8.669	0	0	0	-135.659	27.584	54.548	-103.948	16.346	168.973	-156.795	-83.945	54.885
116	1.16	-75.925	-24.753	165.436	-94.349	-268.664	199.377	-78.488	-262.024	226.65	-46.816	-153.158	-8.669	-46.816	31.938	-8.669	0	0	0	-135.859	27.678	54.703	-103.931	16.496	169.073	-156.889	-83.871	55.103
117	1.17	-75.853	-24.586	165.234	-92.098	-268.565	199.799	-76.325	-261.71	227.069	-46.816	-153.158	-8.669	-46.816	31.938	-8.669	0	0	0	-136.188	27.686	54.626	-104.089	16.588	168.956	-157.136	-83.879	55.116
118	1.18	-75.838	-24.231	164.782	-89.771	-268.26	199.998	-74.089	-261.18	227.263	-46.816	-153.158	-8.669	-46.816	31.938	-8.669	0	0	0	-136.449	27.509	54.381	-104.256	16.543	168.697	-157.34	-84.065	54.999
119	1.19	-75.711	-23.98	164.548	-87.268	-268.03	200.47	-71.686	-260.715	227.73	-46.816	-153.158	-8.669	-46.816	31.938	-8.669	0	0	0	-136.554	27.162	54.135	-104.339	16.385	168.463	-157.399	-84.419	54.927
120	1.2	-75.664	-23.951	164.82	-84.871	-267.987	201.511	-69.405	-260.431	228.772	-46.816	-153.158	-8.669	-46.816	31.938	-8.669	0	0	0	-136.622	26.785	53.979	-104.432	16.229	168.335	-157.413	-84.805	54.967
121	1.21	-75.965	-24.076	165.242	-82.88	-268.073	202.687	-67.536	-260.282	229.95	-46.816	-153.158	-8.669	-46.816	31.938	-8.669	0	0	0	-136.873	26.453	53.868	-104.732	16.115	168.257	-157.596	-85.149	55.039
122	1.22	-76.453	-24.115	165.385	-81.057	-268.066	203.479	-65.827	-260.053	230.742	-46.816	-153.158	-8.669	-46.816	31.938	-8.669	0	0	0	-137.331	26.139	53.761	-105.256	15.996	168.186	-157.979	-85.474	55.087
123	1.23	-76.714	-23.767	165.23	-78.869	-267.66	203.903	-63.748	-259.428	231.161	-46.816	-153.158	-8.669	-46.816	31.938	-8.669	0	0	0	-137.741	25.921	53.702	-105.723	15.961	168.159	-158.308	-85.705	55.173
124	1.24	-76.636	-23.136	164.839	-76.244	-266.934	204.169	-61.225	-258.47	231.412	-46.816	-153.158	-8.669	-46.816	31.938	-8.669	0	0	0	-137.929	25.911	53.683	-105.918	16.148	168.159	-158.39	-85.733	55.313
125	1.25	-76.454	-22.698	164.319	-73.611	-266.345	204.478	-58.682	-257.637	231.694	-46.816	-153.158	-8.669	-46.816	31.938	-8.669	0	0	0	-137.993	26.012	53.611	-105.934	16.458	168.091	-158.324	-85.653	55.415
